<mxfile host="Electron" modified="2023-04-15T13:31:59.975Z" agent="5.0 (X11; Linux x86_64) AppleWebKit/537.36 (KHTML, like Gecko) draw.io/20.8.16 Chrome/106.0.5249.199 Electron/21.4.0 Safari/537.36" etag="utck_Xn2fw7PATq4JxRX" compressed="false" version="20.8.16" type="device">
  <diagram id="8PI5glCoYeSU1P0FbpF8" name="main">
    <mxGraphModel dx="1243" dy="1014" grid="0" gridSize="10" guides="1" tooltips="1" connect="1" arrows="1" fold="1" page="0" pageScale="1" pageWidth="850" pageHeight="1100" math="0" shadow="0">
      <root>
        <mxCell id="0" />
        <mxCell id="1" parent="0" />
        <mxCell id="wzED7ktJJkokemNBI6Fu-24" style="edgeStyle=orthogonalEdgeStyle;rounded=1;orthogonalLoop=1;jettySize=auto;html=1;exitX=1;exitY=0.5;exitDx=0;exitDy=0;endArrow=classic;endFill=1;" edge="1" source="wzED7ktJJkokemNBI6Fu-25" target="wzED7ktJJkokemNBI6Fu-28" parent="1">
          <mxGeometry relative="1" as="geometry" />
        </mxCell>
        <mxCell id="wzED7ktJJkokemNBI6Fu-25" value="C" style="rounded=1;whiteSpace=wrap;html=1;fillColor=#f0a30a;strokeColor=#BD7000;fontColor=#000000;fontStyle=1" vertex="1" parent="1">
          <mxGeometry x="442" y="370" width="120" height="60" as="geometry" />
        </mxCell>
        <mxCell id="wzED7ktJJkokemNBI6Fu-26" style="edgeStyle=orthogonalEdgeStyle;rounded=1;orthogonalLoop=1;jettySize=auto;html=1;exitX=1;exitY=0.5;exitDx=0;exitDy=0;entryX=0;entryY=0.5;entryDx=0;entryDy=0;endArrow=classic;endFill=1;" edge="1" source="wzED7ktJJkokemNBI6Fu-27" target="wzED7ktJJkokemNBI6Fu-25" parent="1">
          <mxGeometry relative="1" as="geometry" />
        </mxCell>
        <mxCell id="wzED7ktJJkokemNBI6Fu-27" value="stdin" style="ellipse;whiteSpace=wrap;html=1;rounded=1;fillColor=#f5f5f5;strokeColor=#666666;fontColor=#333333;" vertex="1" parent="1">
          <mxGeometry x="310" y="380" width="90" height="40" as="geometry" />
        </mxCell>
        <mxCell id="wzED7ktJJkokemNBI6Fu-56" style="edgeStyle=orthogonalEdgeStyle;rounded=1;orthogonalLoop=1;jettySize=auto;html=1;exitX=1;exitY=0.5;exitDx=0;exitDy=0;entryX=0;entryY=0.5;entryDx=0;entryDy=0;" edge="1" parent="1" source="wzED7ktJJkokemNBI6Fu-28" target="wzED7ktJJkokemNBI6Fu-49">
          <mxGeometry relative="1" as="geometry" />
        </mxCell>
        <mxCell id="wzED7ktJJkokemNBI6Fu-28" value="stdout" style="ellipse;whiteSpace=wrap;html=1;rounded=1;fillColor=#f5f5f5;strokeColor=#666666;fontColor=#333333;" vertex="1" parent="1">
          <mxGeometry x="604" y="380" width="90" height="40" as="geometry" />
        </mxCell>
        <mxCell id="wzED7ktJJkokemNBI6Fu-51" style="edgeStyle=orthogonalEdgeStyle;rounded=1;orthogonalLoop=1;jettySize=auto;html=1;exitX=1;exitY=0.5;exitDx=0;exitDy=0;entryX=0;entryY=0.5;entryDx=0;entryDy=0;" edge="1" parent="1" source="wzED7ktJJkokemNBI6Fu-29" target="wzED7ktJJkokemNBI6Fu-34">
          <mxGeometry relative="1" as="geometry" />
        </mxCell>
        <mxCell id="wzED7ktJJkokemNBI6Fu-52" style="edgeStyle=orthogonalEdgeStyle;rounded=1;orthogonalLoop=1;jettySize=auto;html=1;exitX=1;exitY=0.5;exitDx=0;exitDy=0;entryX=0;entryY=0.5;entryDx=0;entryDy=0;" edge="1" parent="1" source="wzED7ktJJkokemNBI6Fu-29" target="wzED7ktJJkokemNBI6Fu-27">
          <mxGeometry relative="1" as="geometry" />
        </mxCell>
        <mxCell id="wzED7ktJJkokemNBI6Fu-29" value="stdin" style="rhombus;whiteSpace=wrap;html=1;rounded=1;fillColor=#fa6800;fontColor=#000000;strokeColor=#C73500;fontStyle=1" vertex="1" parent="1">
          <mxGeometry x="70" y="190" width="80" height="80" as="geometry" />
        </mxCell>
        <mxCell id="wzED7ktJJkokemNBI6Fu-30" value="stdout" style="rhombus;whiteSpace=wrap;html=1;rounded=1;fillColor=#fa6800;fontColor=#000000;strokeColor=#C73500;fontStyle=1" vertex="1" parent="1">
          <mxGeometry x="1380" y="190" width="80" height="80" as="geometry" />
        </mxCell>
        <mxCell id="wzED7ktJJkokemNBI6Fu-31" style="edgeStyle=orthogonalEdgeStyle;rounded=1;orthogonalLoop=1;jettySize=auto;html=1;exitX=1;exitY=0.5;exitDx=0;exitDy=0;endArrow=classic;endFill=1;" edge="1" source="wzED7ktJJkokemNBI6Fu-32" target="wzED7ktJJkokemNBI6Fu-35" parent="1">
          <mxGeometry relative="1" as="geometry" />
        </mxCell>
        <mxCell id="wzED7ktJJkokemNBI6Fu-32" value="A" style="rounded=1;whiteSpace=wrap;html=1;fillColor=#f0a30a;strokeColor=#BD7000;fontColor=#000000;fontStyle=1" vertex="1" parent="1">
          <mxGeometry x="442" y="15" width="120" height="60" as="geometry" />
        </mxCell>
        <mxCell id="wzED7ktJJkokemNBI6Fu-33" style="edgeStyle=orthogonalEdgeStyle;rounded=1;orthogonalLoop=1;jettySize=auto;html=1;exitX=1;exitY=0.5;exitDx=0;exitDy=0;entryX=0;entryY=0.5;entryDx=0;entryDy=0;endArrow=classic;endFill=1;" edge="1" source="wzED7ktJJkokemNBI6Fu-34" target="wzED7ktJJkokemNBI6Fu-32" parent="1">
          <mxGeometry relative="1" as="geometry" />
        </mxCell>
        <mxCell id="wzED7ktJJkokemNBI6Fu-34" value="stdin" style="ellipse;whiteSpace=wrap;html=1;rounded=1;fillColor=#f5f5f5;strokeColor=#666666;fontColor=#333333;" vertex="1" parent="1">
          <mxGeometry x="310" y="25" width="90" height="40" as="geometry" />
        </mxCell>
        <mxCell id="wzED7ktJJkokemNBI6Fu-55" style="edgeStyle=orthogonalEdgeStyle;rounded=1;orthogonalLoop=1;jettySize=auto;html=1;exitX=1;exitY=0.5;exitDx=0;exitDy=0;" edge="1" parent="1" source="wzED7ktJJkokemNBI6Fu-35" target="wzED7ktJJkokemNBI6Fu-39">
          <mxGeometry relative="1" as="geometry" />
        </mxCell>
        <mxCell id="wzED7ktJJkokemNBI6Fu-35" value="stdout" style="ellipse;whiteSpace=wrap;html=1;rounded=1;fillColor=#f5f5f5;strokeColor=#666666;fontColor=#333333;" vertex="1" parent="1">
          <mxGeometry x="604" y="25" width="90" height="40" as="geometry" />
        </mxCell>
        <mxCell id="wzED7ktJJkokemNBI6Fu-36" style="edgeStyle=orthogonalEdgeStyle;rounded=1;orthogonalLoop=1;jettySize=auto;html=1;exitX=1;exitY=0.5;exitDx=0;exitDy=0;endArrow=classic;endFill=1;" edge="1" parent="1" source="wzED7ktJJkokemNBI6Fu-37" target="wzED7ktJJkokemNBI6Fu-40">
          <mxGeometry relative="1" as="geometry" />
        </mxCell>
        <mxCell id="wzED7ktJJkokemNBI6Fu-37" value="B" style="rounded=1;whiteSpace=wrap;html=1;fillColor=#f0a30a;strokeColor=#BD7000;fontColor=#000000;fontStyle=1" vertex="1" parent="1">
          <mxGeometry x="924" y="15" width="120" height="60" as="geometry" />
        </mxCell>
        <mxCell id="wzED7ktJJkokemNBI6Fu-38" style="edgeStyle=orthogonalEdgeStyle;rounded=1;orthogonalLoop=1;jettySize=auto;html=1;exitX=1;exitY=0.5;exitDx=0;exitDy=0;entryX=0;entryY=0.5;entryDx=0;entryDy=0;endArrow=classic;endFill=1;" edge="1" parent="1" source="wzED7ktJJkokemNBI6Fu-39" target="wzED7ktJJkokemNBI6Fu-37">
          <mxGeometry relative="1" as="geometry" />
        </mxCell>
        <mxCell id="wzED7ktJJkokemNBI6Fu-39" value="stdin" style="ellipse;whiteSpace=wrap;html=1;rounded=1;fillColor=#f5f5f5;strokeColor=#666666;fontColor=#333333;" vertex="1" parent="1">
          <mxGeometry x="792" y="25" width="90" height="40" as="geometry" />
        </mxCell>
        <mxCell id="wzED7ktJJkokemNBI6Fu-54" style="edgeStyle=orthogonalEdgeStyle;rounded=1;orthogonalLoop=1;jettySize=auto;html=1;exitX=1;exitY=0.5;exitDx=0;exitDy=0;entryX=0;entryY=0.5;entryDx=0;entryDy=0;" edge="1" parent="1" source="wzED7ktJJkokemNBI6Fu-40" target="wzED7ktJJkokemNBI6Fu-30">
          <mxGeometry relative="1" as="geometry" />
        </mxCell>
        <mxCell id="wzED7ktJJkokemNBI6Fu-40" value="stdout" style="ellipse;whiteSpace=wrap;html=1;rounded=1;fillColor=#f5f5f5;strokeColor=#666666;fontColor=#333333;" vertex="1" parent="1">
          <mxGeometry x="1086" y="25" width="90" height="40" as="geometry" />
        </mxCell>
        <mxCell id="wzED7ktJJkokemNBI6Fu-46" style="edgeStyle=orthogonalEdgeStyle;rounded=1;orthogonalLoop=1;jettySize=auto;html=1;exitX=1;exitY=0.5;exitDx=0;exitDy=0;endArrow=classic;endFill=1;" edge="1" parent="1" source="wzED7ktJJkokemNBI6Fu-47" target="wzED7ktJJkokemNBI6Fu-50">
          <mxGeometry relative="1" as="geometry" />
        </mxCell>
        <mxCell id="wzED7ktJJkokemNBI6Fu-47" value="D" style="rounded=1;whiteSpace=wrap;html=1;fillColor=#f0a30a;strokeColor=#BD7000;fontColor=#000000;fontStyle=1" vertex="1" parent="1">
          <mxGeometry x="924" y="370" width="120" height="60" as="geometry" />
        </mxCell>
        <mxCell id="wzED7ktJJkokemNBI6Fu-48" style="edgeStyle=orthogonalEdgeStyle;rounded=1;orthogonalLoop=1;jettySize=auto;html=1;exitX=1;exitY=0.5;exitDx=0;exitDy=0;entryX=0;entryY=0.5;entryDx=0;entryDy=0;endArrow=classic;endFill=1;" edge="1" parent="1" source="wzED7ktJJkokemNBI6Fu-49" target="wzED7ktJJkokemNBI6Fu-47">
          <mxGeometry relative="1" as="geometry" />
        </mxCell>
        <mxCell id="wzED7ktJJkokemNBI6Fu-49" value="stdin" style="ellipse;whiteSpace=wrap;html=1;rounded=1;fillColor=#f5f5f5;strokeColor=#666666;fontColor=#333333;" vertex="1" parent="1">
          <mxGeometry x="792" y="380" width="90" height="40" as="geometry" />
        </mxCell>
        <mxCell id="wzED7ktJJkokemNBI6Fu-53" style="edgeStyle=orthogonalEdgeStyle;rounded=1;orthogonalLoop=1;jettySize=auto;html=1;exitX=1;exitY=0.5;exitDx=0;exitDy=0;entryX=0;entryY=0.5;entryDx=0;entryDy=0;" edge="1" parent="1" source="wzED7ktJJkokemNBI6Fu-50" target="wzED7ktJJkokemNBI6Fu-30">
          <mxGeometry relative="1" as="geometry" />
        </mxCell>
        <mxCell id="wzED7ktJJkokemNBI6Fu-50" value="stdout" style="ellipse;whiteSpace=wrap;html=1;rounded=1;fillColor=#f5f5f5;strokeColor=#666666;fontColor=#333333;" vertex="1" parent="1">
          <mxGeometry x="1086" y="380" width="90" height="40" as="geometry" />
        </mxCell>
        <mxCell id="wzED7ktJJkokemNBI6Fu-59" style="edgeStyle=orthogonalEdgeStyle;rounded=1;orthogonalLoop=1;jettySize=auto;html=1;exitX=1;exitY=0.5;exitDx=0;exitDy=0;entryX=0;entryY=0.5;entryDx=0;entryDy=0;" edge="1" parent="1" source="wzED7ktJJkokemNBI6Fu-57" target="wzED7ktJJkokemNBI6Fu-58">
          <mxGeometry relative="1" as="geometry" />
        </mxCell>
        <mxCell id="wzED7ktJJkokemNBI6Fu-57" value="x" style="rhombus;whiteSpace=wrap;html=1;rounded=1;fillColor=#fa6800;fontColor=#000000;strokeColor=#C73500;fontStyle=1" vertex="1" parent="1">
          <mxGeometry x="280" y="519" width="80" height="80" as="geometry" />
        </mxCell>
        <mxCell id="wzED7ktJJkokemNBI6Fu-58" value="y" style="rhombus;whiteSpace=wrap;html=1;rounded=1;fillColor=#fa6800;fontColor=#000000;strokeColor=#C73500;fontStyle=1" vertex="1" parent="1">
          <mxGeometry x="1139" y="519" width="80" height="80" as="geometry" />
        </mxCell>
      </root>
    </mxGraphModel>
  </diagram>
</mxfile>
